HIERARCHY
ROOT Hips
{
	OFFSET 0.000000 0.000000 0.000000
	CHANNELS 6 Xposition Yposition Zposition Yrotation Xrotation Zrotation
	JOINT Chest
	{
		OFFSET 0.000000 -0.009281 11.569106
		CHANNELS 3 Yrotation Xrotation Zrotation
		JOINT Chest2
		{
			OFFSET -0.000000 0.016865 9.269641
			CHANNELS 3 Yrotation Xrotation Zrotation
			JOINT Chest3
			{
				OFFSET -0.000000 0.000001 8.374491
				CHANNELS 3 Yrotation Xrotation Zrotation
				JOINT Chest4
				{
					OFFSET -0.000000 0.000001 8.374493
					CHANNELS 3 Yrotation Xrotation Zrotation
					JOINT Neck
					{
						OFFSET -0.000000 0.000002 12.152554
						CHANNELS 3 Yrotation Xrotation Zrotation
						JOINT Head
						{
							OFFSET -0.000000 0.040101 7.802319
							CHANNELS 3 Yrotation Xrotation Zrotation
							End Site
							{
								OFFSET -0.000000 0.020947 14.853096
							}
						}
					}
					JOINT RightCollar
					{
						OFFSET 2.894404 0.000001 6.791374
						CHANNELS 3 Yrotation Xrotation Zrotation
						JOINT RightShoulder
						{
							OFFSET 13.574684 0.000001 0.000000
							CHANNELS 3 Yrotation Xrotation Zrotation
							JOINT RightElbow
							{
								OFFSET 23.923903 0.000002 0.000000
								CHANNELS 3 Yrotation Xrotation Zrotation
								JOINT RightWrist
								{
									OFFSET 19.846718 0.012767 0.000000
									CHANNELS 3 Yrotation Xrotation Zrotation
									End Site
									{
										OFFSET 14.973145 0.000001 0.000000
									}
								}
							}
						}
					}
					JOINT LeftCollar
					{
						OFFSET -2.894404 0.000001 6.791374
						CHANNELS 3 Yrotation Xrotation Zrotation
						JOINT LeftShoulder
						{
							OFFSET -13.574684 -0.000001 0.000000
							CHANNELS 3 Yrotation Xrotation Zrotation
							JOINT LeftElbow
							{
								OFFSET -23.923903 -0.000002 0.000000
								CHANNELS 3 Yrotation Xrotation Zrotation
								JOINT LeftWrist
								{
									OFFSET -19.846718 0.012763 0.000000
									CHANNELS 3 Yrotation Xrotation Zrotation
									End Site
									{
										OFFSET -14.973145 -0.000001 0.000000
									}
								}
							}
						}
					}
				}
			}
		}
	}
	JOINT RightHip
	{
		OFFSET 9.469263 0.004643 0.045487
		CHANNELS 3 Yrotation Xrotation Zrotation
		JOINT RightKnee
		{
			OFFSET 0.000000 0.002661 -40.478676
			CHANNELS 3 Yrotation Xrotation Zrotation
			JOINT RightAnkle
			{
				OFFSET 0.000000 0.049106 -35.224068
				CHANNELS 3 Yrotation Xrotation Zrotation
				JOINT RightToe
				{
					OFFSET -0.000001 12.539529 -6.151390
					CHANNELS 3 Yrotation Xrotation Zrotation
					End Site
					{
						OFFSET -0.000001 5.044994 -1.291870
					}
				}
			}
		}
	}
	JOINT LeftHip
	{
		OFFSET -9.469263 0.004641 0.045487
		CHANNELS 3 Yrotation Xrotation Zrotation
		JOINT LeftKnee
		{
			OFFSET 0.000000 0.002661 -40.478676
			CHANNELS 3 Yrotation Xrotation Zrotation
			JOINT LeftAnkle
			{
				OFFSET 0.000000 0.049106 -35.224068
				CHANNELS 3 Yrotation Xrotation Zrotation
				JOINT LeftToe
				{
					OFFSET -0.000001 12.539529 -6.151390
					CHANNELS 3 Yrotation Xrotation Zrotation
					End Site
					{
						OFFSET -0.000001 5.044994 -1.291870
					}
				}
			}
		}
	}
}
MOTION
Frames: 9
Frame Time: 0.016667
9.185528 6.923146 83.128532 -5.686377 -1.379447 -107.558595 -0.562759 -3.496912 2.375859 -0.246970 -1.554548 1.071969 -0.246970 -1.554548 1.071968 -0.182490 -1.166348 0.803299 -0.607946 -24.013403 5.184153 0.217695 -8.506647 9.154060 10.384223 1.315096 -6.209061 57.154238 30.425679 22.507586 35.337370 21.151945 37.051345 22.420313 18.180345 -14.608518 -9.191613 -4.511513 -6.331935 -59.619314 38.534114 -25.322207 -35.013288 33.445879 -39.952136 6.656130 66.673144 -21.958136 -1.013488 -4.799670 -1.312901 2.087725 -5.376561 -9.065369 -1.323893 4.039890 1.499001 0.059840 -0.047948 -0.026770 -1.089647 -7.063728 2.916173 0.858252 -2.024429 -0.211051 -0.724036 3.652456 0.454753 -0.145999 -0.028323 0.016910 
9.180585 6.906600 83.133713 -5.683457 -1.360433 -107.449435 -0.601282 -3.526715 2.381188 -0.261635 -1.567739 1.071509 -0.261635 -1.567739 1.071509 -0.193465 -1.176267 0.802912 -0.614670 -23.972579 5.322843 0.242893 -8.436841 9.402303 10.374060 1.411761 -6.235152 56.868497 30.426980 22.313174 35.482488 21.227815 37.206813 22.073442 18.260876 -14.566183 -9.185040 -4.421094 -6.375097 -59.433369 38.447524 -25.271463 -34.901392 32.866925 -40.039696 6.080946 66.173113 -22.550742 -1.016590 -4.812255 -1.300564 2.114036 -5.360881 -9.148051 -1.355026 4.044506 1.476558 0.053449 -0.043309 -0.025828 -1.079865 -7.042874 2.859619 0.859513 -2.025989 -0.265189 -0.721239 3.645785 0.458836 -0.127082 -0.022925 0.016582 
9.181808 6.889681 83.139114 -5.672245 -1.338037 -107.336471 -0.635462 -3.547052 2.379297 -0.275211 -1.576231 1.068153 -0.275211 -1.576231 1.068155 -0.203641 -1.182659 0.800356 -0.609733 -23.945812 5.384423 0.268887 -8.390434 9.514753 10.353000 1.555097 -6.272112 56.568037 30.550159 22.172910 35.685150 21.236860 37.380266 21.720121 18.353094 -14.498960 -9.154265 -4.355404 -6.425821 -59.234939 38.314964 -25.312495 -34.754144 32.340775 -40.137105 5.590863 65.618522 -23.105072 -1.014159 -4.836430 -1.303202 2.126715 -5.313344 -9.236667 -1.369879 4.038359 1.458322 0.040677 -0.039738 -0.024390 -1.072065 -7.029047 2.850628 0.862287 -2.002068 -0.341557 -0.728784 3.625913 0.432205 -0.104341 -0.015749 0.016189 
9.189949 6.871840 83.143974 -5.646607 -1.312539 -107.225582 -0.665218 -3.555199 2.371393 -0.287248 -1.579356 1.062090 -0.287248 -1.579356 1.062093 -0.212677 -1.185021 0.795778 -0.591467 -23.926352 5.367225 0.298597 -8.354875 9.488953 10.303285 1.727080 -6.343754 56.274154 30.753442 22.096652 35.900372 21.164058 37.575756 21.449316 18.451298 -14.415533 -9.125592 -4.266278 -6.483588 -58.951998 38.132348 -25.361665 -34.615269 31.836184 -40.262814 5.413352 65.011714 -23.393077 -1.010274 -4.862877 -1.336207 2.130235 -5.241460 -9.304558 -1.372180 4.025147 1.458672 0.025139 -0.037514 -0.022515 -1.059833 -7.012454 2.864848 0.858591 -1.962723 -0.415653 -0.741132 3.599628 0.386113 -0.081039 -0.008228 0.015320 
9.206144 6.852048 83.147949 -5.606690 -1.283012 -107.113690 -0.693580 -3.554187 2.355478 -0.299136 -1.578122 1.053161 -0.299136 -1.578122 1.053162 -0.221618 -1.184111 0.789049 -0.556357 -23.912817 5.269443 0.337918 -8.327682 9.322570 10.256707 1.931855 -6.391483 55.902971 30.998216 22.009470 36.196441 21.099918 37.866207 21.173323 18.537038 -14.344618 -9.091935 -4.154664 -6.528936 -58.603610 37.906556 -25.382077 -34.458701 31.241640 -40.424259 5.706211 64.264458 -23.288189 -1.000323 -4.895775 -1.396072 2.122941 -5.139454 -9.365852 -1.366319 4.005259 1.466623 0.009003 -0.037606 -0.020267 -1.047360 -6.988448 2.873468 0.853624 -1.920582 -0.479275 -0.760512 3.573510 0.336524 -0.056556 0.000787 0.013510 
9.228275 6.830459 83.151276 -5.554549 -1.248802 -106.999838 -0.724715 -3.548531 2.334642 -0.312652 -1.575509 1.042942 -0.312652 -1.575509 1.042943 -0.231785 -1.182170 0.781350 -0.494737 -23.900983 5.077422 0.400967 -8.301164 8.993624 10.202998 2.143347 -6.437847 55.486783 31.262729 21.931654 36.576626 21.081041 38.231943 20.775520 18.649425 -14.253663 -9.048201 -4.044967 -6.595245 -58.197474 37.707313 -25.353672 -34.271140 30.460660 -40.592367 6.013946 63.410404 -23.149967 -0.988728 -4.934834 -1.469621 2.109621 -5.007781 -9.436694 -1.352252 3.977740 1.484728 -0.007893 -0.039976 -0.017872 -1.033282 -6.953041 2.844970 0.844829 -1.882481 -0.502414 -0.790109 3.545271 0.278436 -0.029165 0.013405 0.011182 
9.252700 6.810595 83.154289 -5.500099 -1.210692 -106.880112 -0.757310 -3.539060 2.313920 -0.326785 -1.572462 1.032085 -0.326785 -1.572461 1.032086 -0.242418 -1.179902 0.773175 -0.395683 -23.895371 4.776271 0.503239 -8.283887 8.478049 10.139799 2.363924 -6.484740 55.057277 31.522020 21.865900 36.968764 21.152092 38.657686 20.169117 18.771411 -14.132401 -9.004603 -3.916605 -6.670842 -57.721205 37.481326 -25.248581 -34.088853 29.541750 -40.760431 5.880786 62.485576 -23.309440 -0.987067 -4.972423 -1.537808 2.107054 -4.876315 -9.520442 -1.332643 3.953509 1.512182 -0.027263 -0.041907 -0.016515 -1.023558 -6.915429 2.785202 0.837726 -1.842307 -0.485814 -0.832296 3.506810 0.207017 0.001300 0.030481 0.009401 
9.279712 6.790992 83.157440 -5.445920 -1.174891 -106.752640 -0.790345 -3.525708 2.291618 -0.340176 -1.567590 1.020426 -0.340176 -1.567590 1.020427 -0.252499 -1.176265 0.764400 -0.258379 -23.896359 4.354761 0.643302 -8.276308 7.755901 10.072460 2.598832 -6.521569 54.639741 31.802242 21.806965 37.281051 21.275679 39.100306 19.419058 18.855999 -13.979308 -8.968167 -3.790820 -6.756999 -57.217864 37.238533 -25.097559 -33.833994 28.471609 -40.882562 5.395027 61.475459 -23.664691 -0.981621 -5.019365 -1.613176 2.100029 -4.733094 -9.615577 -1.305032 3.924905 1.558924 -0.045997 -0.042139 -0.014900 -1.008622 -6.882729 2.714259 0.827449 -1.794142 -0.478175 -0.881268 3.463269 0.146053 0.032094 0.044234 0.008788 
9.307886 6.770578 83.160278 -5.394622 -1.136107 -106.607676 -0.828415 -3.505256 2.269902 -0.354635 -1.559358 1.009457 -0.354635 -1.559358 1.009458 -0.263384 -1.170108 0.756143 -0.079473 -23.907453 3.807164 0.825519 -8.285222 6.817684 10.007211 2.822353 -6.566661 54.259422 32.159027 21.758992 37.488016 21.397612 39.542595 18.718941 18.733404 -13.761457 -8.928727 -3.701048 -6.839109 -56.762724 36.980823 -24.987781 -33.382314 27.283566 -40.886592 4.840217 60.209087 -23.907014 -0.973495 -5.081403 -1.720224 2.085048 -4.570807 -9.715229 -1.271909 3.894030 1.614298 -0.063136 -0.045171 -0.013360 -0.995527 -6.860109 2.631810 0.814731 -1.728410 -0.483412 -0.932049 3.411916 0.089717 0.060413 0.052081 0.009487 
